<svg id="Capa_1" enable-background="new 0 0 511.998 511.998" height="512" viewBox="0 0 511.998 511.998" width="512" fill="#41171b" xmlns="http://www.w3.org/2000/svg"><g><path d="m436.01 307.256-9.223 5.224-21.729-38.364c18.106-16.063 31.236-37.009 37.847-60.892 9.037-32.649 4.822-66.86-11.87-96.33-11.233-19.832-27.044-35.476-45.359-46.367v-70.527h-52.327v15h37.327v47.907c-35.167-15.042-76.708-14.121-112.482 6.141-60.843 34.462-82.307 112-47.846 172.846 23.313 41.158 66.325 64.292 110.557 64.292 12.585 0 25.27-1.891 37.628-5.757l12.144 21.44v175.13h-294.523v-56.412h-56.413v-30.729h-15v41.336l60.808 60.805h320.127v-142.139l56.625 99.977 28.577 7.907 28.469-16.121 7.91-28.577zm-374.856 179.135-30.807-30.805h30.807zm162.245-251.89c-30.385-53.649-11.46-122.016 42.187-152.402 53.646-30.387 122.012-11.46 152.398 42.188 14.717 25.983 18.434 56.147 10.464 84.936-7.969 28.788-26.667 52.747-52.651 67.463-53.646 30.386-122.011 11.462-152.398-42.185zm159.79 55.237c3.428-1.942 6.739-4.031 9.938-6.248l20.607 36.384-20.404 11.557-20.614-36.393c3.537-1.593 7.034-3.352 10.473-5.3zm103.359 161.895-17.656 9.998-16.602-4.594-60.79-107.33 38.852-22.007 60.792 107.332z"/><path d="m405.559 131.323c-12.839-22.668-33.737-38.98-58.846-45.93-25.11-6.951-51.421-3.707-74.09 9.132-46.796 26.505-63.304 86.14-36.8 132.937 12.84 22.67 33.739 38.982 58.848 45.932 8.648 2.394 17.435 3.579 26.17 3.578 16.628-.001 33.059-4.294 47.92-12.712 46.795-26.505 63.302-86.14 36.798-132.937zm-44.191 119.885c-19.183 10.866-41.448 13.611-62.695 7.73s-38.933-19.685-49.798-38.868c-22.429-39.601-8.459-90.064 31.141-112.493 12.577-7.124 26.478-10.756 40.549-10.756 7.391 0 14.83 1.002 22.146 3.028 21.247 5.881 38.932 19.684 49.796 38.867 22.429 39.599 8.46 90.064-31.139 112.492z"/><path d="m86.333 351.565h-45.002v70.147h45.002zm-15 55.147h-15.002v-40.147h15.002z"/><path d="m146.332 421.713v-105.599h-45v105.599zm-30-90.599h15v75.599h-15z"/><path d="m161.327 421.712h45v-125.294h-45zm15-110.294h15v95.294h-15z"/><path d="m19.741 15h298.608v-15h-313.608v394.857h15z"/><path d="m379.455 146.108c-6.559-11.58-16.285-20.878-28.128-26.889l-6.789 13.375c9.204 4.672 16.765 11.901 21.865 20.905.563.995 1.1 2.017 1.593 3.037l13.502-6.536c-.634-1.308-1.321-2.617-2.043-3.892z"/><path d="m372.184 168.944c1.246 6.156 1.372 12.443.374 18.686l14.813 2.368c1.282-8.022 1.119-16.107-.485-24.03z"/><path d="m49.741 67.5v-22.5h37.5 15 15 23.369v-15h-23.369-15-15-52.5v37.5 4.488h15z"/><path d="m34.741 86.988h15v15h-15z"/><path d="m451.977 420.078h15v14.978h-15z" transform="matrix(.87 -.492 .492 .87 -150.956 281.607)"/><path d="m429.291 363.716h15v47.572h-15z" transform="matrix(.87 -.493 .493 .87 -134.299 265.846)"/><path d="m261.852 406.71h15.001v15h-15.001z"/><path d="m231.85 406.71h15.001v15h-15.001z"/><path d="m291.854 406.71h49.729v15h-49.729z"/><path d="m231.851 373.51h109.734v15h-109.734z"/><path d="m231.849 340.31h48.62v15h-48.62z"/><path d="m295.47 340.31h46.113v15h-46.113z"/><path d="m167.693 212.399h-16.589v-125.865h-15v125.865h-16.59v-78.033h-15v78.033h-16.591v-37.798h-15v37.798h-16.591v-20.355h-15v35.355h141.361v-160.561h-15z"/><path d="m283.442 481.998h4.734v-15h-4.734-10.266-4.733v15h4.733z"/><path d="m355.676 481.998v-30-.01h-15v.01 15h-37.5-4.732v15h4.732z"/></g></svg>