<svg id="Layer_5"  fill="#41171b" enable-background="new 0 0 64 64" height="512" viewBox="0 0 64 64" width="512" xmlns="http://www.w3.org/2000/svg"><circle cx="26" cy="24" r="1"/><circle cx="38" cy="24" r="1"/><path d="m32 34c-1.103 0-2-.897-2-2h-2c0 2.206 1.794 4 4 4s4-1.794 4-4h-2c0 1.103-.897 2-2 2z"/><path d="m50.795 48.1c2.597-2.063 4.005-4.484 4.073-4.604l.524-.918-.945-.473c-3.36-1.679-5.447-5.054-5.447-8.806l.001-16.448c0-4.235-1.65-8.216-4.648-11.209-2.999-2.994-6.988-4.642-11.234-4.642h-.26c-4.046 0-7.851 1.577-10.712 4.439l-1.713 1.713c-3.308 1.412-5.434 4.621-5.434 8.233v17.907c0 3.757-2.087 7.134-5.447 8.813l-.945.473.524.918c.068.119 1.475 2.54 4.073 4.604-5.035 2.775-8.205 8.044-8.205 13.9v1h54v-1c0-5.856-3.17-11.126-8.205-13.9zm-17.937-45.1h.26c3.712 0 7.2 1.441 9.821 4.057 2.619 2.615 4.062 6.093 4.062 9.793l-.001 16.449c0 4.137 2.108 7.893 5.571 10.047-.689.955-2.003 2.538-3.837 3.784l-9.871-4.039c-1.132-.463-1.863-1.553-1.863-2.777v-.718c4.921-3.401 8-9.039 8-15.246v-6.256l-11.46-1.146c-5.141-.513-9.54-3.903-11.378-8.696l1.399-1.399c2.483-2.485 5.785-3.853 9.297-3.853zm7.142 43c0 1.654-1.57 3-3.5 3-1.157 0-2.196-.487-2.838-1.256 1.643-.473 2.998-1.621 3.734-3.164.225.137.462.26.711.362l1.85.757c.012.101.043.199.043.301zm-15.957-.301 1.85-.757c.25-.102.486-.225.711-.362.736 1.543 2.091 2.691 3.734 3.164-.642.769-1.681 1.256-2.838 1.256-1.93 0-3.5-1.346-3.5-3 0-.102.031-.2.043-.301zm7.957-5.757c-6.594-2.345-11-8.568-11-15.591v-2.057c0-1.719.866-3.296 2.316-4.218l2.783-1.771c2.117 1.44 4.594 2.37 7.241 2.634l9.66.966v4.446c0 7.024-4.406 13.247-11 15.591zm-.316 2.007.316.105.316-.105c.947-.316 1.855-.702 2.719-1.152.08.832.352 1.616.799 2.289-.479 1.706-2.024 2.914-3.834 2.914-1.811 0-3.356-1.208-3.835-2.914.448-.673.72-1.457.799-2.289.864.449 1.773.836 2.72 1.152zm.316 6.916c.276.357.604.674.968.952l1.853 11.183h-5.642l1.853-11.183c.364-.278.692-.594.968-.952zm-20.571-5.519c3.463-2.155 5.571-5.913 5.571-10.054v-17.907c0-2.514 1.327-4.775 3.452-6.007.906 2.175 2.275 4.085 3.979 5.617l-2.188 1.392c-2.031 1.293-3.243 3.501-3.243 5.907v2.057c0 6.206 3.079 11.845 8 15.246v.718c0 1.224-.731 2.313-1.864 2.776l-9.871 4.038c-1.833-1.246-3.147-2.828-3.836-3.783zm4.205 5.793 6.397-2.617c.288 2.513 2.63 4.478 5.469 4.478.461 0 .905-.068 1.337-.167l-1.685 10.167h-10.152v-6h-2v6h-7.965c.373-5.255 3.665-9.842 8.599-11.861zm33.366 11.861v-6h-2v6h-10.152l-1.685-10.167c.432.099.876.167 1.337.167 2.839 0 5.181-1.965 5.469-4.477l6.397 2.617c4.934 2.018 8.226 6.605 8.599 11.86z"/><path d="m42.848 16.165 1.973-.33c-.123-.735-.312-1.465-.561-2.168l-1.886.667c.21.594.37 1.21.474 1.831z"/><path d="m41.529 12.5 1.731-1c-2.319-4.01-6.633-6.5-11.26-6.5v2c3.915 0 7.566 2.108 9.529 5.5z"/></svg>